<svg id="svg" version="1.1" xmlns="http://www.w3.org/2000/svg" style="display: block;" viewBox="0 0 300 300"><path d="M0 0 C99 0 198 0 300 0 C300 99 300 198 300 300 C201 300 102 300 0 300 C0 201 0 102 0 0 Z " transform="translate(0,0)" style="fill: rgb(0, 29, 41); --darkreader-inline-fill: #dbd8d3;" data-darkreader-inline-fill=""/><path d="M0 0 C99 0 198 0 300 0 C300 99 300 198 300 300 C201 300 102 300 0 300 C0 201 0 102 0 0 Z M16 42 C13.19950393 45.5994663 13.71857011 49.98654902 13.73930359 54.34385681 C13.73547804 55.19312557 13.73165249 56.04239433 13.72771102 56.91739851 C13.71737868 59.76783029 13.72137362 62.61806073 13.7253418 65.46850586 C13.72099546 67.5102202 13.71581258 69.55193291 13.70985413 71.59364319 C13.69644468 77.14317016 13.69588761 82.69262912 13.69841743 88.24216914 C13.69948578 92.87207069 13.69460726 97.50195839 13.689812 102.13185698 C13.67871017 113.05267751 13.67828327 123.97346366 13.68432617 134.89428711 C13.6903681 146.16758666 13.67805089 157.44076147 13.6567561 168.71403974 C13.63915454 178.38716267 13.63313645 188.06024584 13.63639385 197.73338419 C13.63820909 203.51324355 13.63554641 209.29301392 13.62167931 215.07285881 C13.60912906 220.50735014 13.61101852 225.94164663 13.62409019 231.37613487 C13.62646161 233.37199722 13.62370115 235.36787317 13.61546707 237.36371994 C13.60504576 240.08576093 13.61306307 242.80714259 13.6257782 245.52915955 C13.61840391 246.32118411 13.61102963 247.11320866 13.60343188 247.92923397 C13.64807104 252.46364335 14.15458095 255.41683678 17 259 C20.1373902 261.09159347 20.84544831 261.2512002 24.41569328 261.26006222 C25.32426578 261.26712781 26.23283828 261.2741934 27.16894329 261.2814731 C28.66818944 261.27785047 28.66818944 261.27785047 30.19772339 261.27415466 C31.25848245 261.27939134 32.31924151 261.28462802 33.41214478 261.29002339 C36.98427345 261.30508484 40.55625966 261.30572989 44.12841797 261.30639648 C46.68229415 261.3140138 49.23616802 261.32244055 51.79003906 261.33161926 C58.74039525 261.35361251 65.69070177 261.36239102 72.64108801 261.36744571 C76.97981694 261.3707011 81.31853699 261.37722258 85.65726089 261.3844471 C97.66707257 261.40401395 109.67687599 261.42041787 121.68670464 261.42332363 C122.45542039 261.4235112 123.22413614 261.42369877 124.01614631 261.42389202 C125.57455579 261.42425828 127.13296528 261.42462198 128.69137476 261.42498314 C129.46498379 261.42516595 130.23859281 261.42534876 131.03564453 261.42553711 C132.19747221 261.42580793 132.19747221 261.42580793 133.38277115 261.42608423 C145.93727393 261.42962694 158.49160531 261.45665495 171.04604863 261.494035 C183.93170836 261.53209464 196.81728298 261.55148093 209.70300019 261.55178314 C216.93945434 261.55236822 224.17570397 261.56089219 231.41210556 261.58978081 C238.2165316 261.61681979 245.02048369 261.61821962 251.82496643 261.60212517 C254.32556667 261.60030315 256.82618975 261.6070687 259.32674026 261.62294388 C262.73441634 261.643263 266.14065335 261.63293458 269.54830933 261.61473083 C270.54334532 261.6279308 271.53838131 261.64113077 272.5635699 261.65473074 C277.28347652 261.59693907 279.30104018 261.55992232 283.09073067 258.52407932 C284.03581899 257.27466006 284.03581899 257.27466006 285 256 C285.33 255.67 285.66 255.34 286 255 C286.10449809 252.3180422 286.1433227 249.66160604 286.14044189 246.97894287 C286.14341302 246.12815383 286.14638414 245.27736479 286.1494453 244.40079427 C286.15817184 241.52727758 286.15964387 238.65380236 286.16113281 235.78027344 C286.16575825 233.72915049 286.17078253 231.67802841 286.17617798 229.62690735 C286.18933173 224.03796644 286.19575289 218.44903756 286.20018864 212.86008358 C286.20311499 209.3713127 286.20721898 205.88254515 286.21169281 202.39377594 C286.22537648 191.48705903 286.23503849 180.58034966 286.2388947 169.67362475 C286.24337571 157.06742445 286.260922 144.46133257 286.2898953 131.85516524 C286.31149013 122.12266114 286.32159783 112.39018758 286.32293582 102.65765977 C286.32398556 96.83974183 286.32992905 91.02192569 286.34775543 85.2040329 C286.36419779 79.73101655 286.36641027 74.25817891 286.35761642 68.78514671 C286.35684395 66.77476969 286.36121632 64.76438322 286.37107468 62.75403023 C286.38373304 60.01213616 286.37795066 57.27088085 286.36749268 54.5289917 C286.37554908 53.73102983 286.38360548 52.93306797 286.39190602 52.11092544 C286.35136795 47.57493243 285.92369918 44.5414506 283 41 C280.07659574 39.21536753 277.89513341 38.74930796 274.49249363 38.74552441 C273.58889687 38.73969221 272.68530011 38.73386002 271.75432163 38.72785109 C270.76551894 38.73163042 269.77671624 38.73540974 268.75794983 38.73930359 C267.70450345 38.73547804 266.65105707 38.73165249 265.56568807 38.72771102 C262.0242919 38.71736544 258.48305738 38.72137617 254.94165039 38.7253418 C252.40733184 38.7209962 249.87301461 38.71581357 247.33869934 38.70985413 C241.16259968 38.69783132 234.98655995 38.69531468 228.81045086 38.69765439 C223.7910376 38.69943655 218.77163755 38.6976901 213.75222588 38.69342995 C213.03816825 38.69283476 212.32411062 38.69223957 211.58841489 38.69162634 C210.13786368 38.69041461 208.68731247 38.68920047 207.23676126 38.68798397 C193.62987311 38.67710459 180.02300972 38.67927283 166.41612016 38.68536881 C153.9651911 38.69053859 141.51434027 38.67928167 129.06342668 38.66027059 C116.28169822 38.64090386 103.5000068 38.63263413 90.71826357 38.63639385 C83.54112864 38.63830763 76.3640603 38.63580108 69.18693733 38.62167931 C62.43921264 38.60853689 55.69167016 38.61100965 48.9439373 38.62409019 C46.46430789 38.62646365 43.98466756 38.62369397 41.50505066 38.61546707 C38.12619419 38.60506313 34.74787069 38.61304949 31.36903381 38.6257782 C29.88917585 38.61471677 29.88917585 38.61471677 28.37942177 38.60343188 C21.67498703 38.64027729 21.67498703 38.64027729 16 42 Z " transform="translate(0,0)" style="fill: rgb(0, 0, 0); --darkreader-inline-fill: #e8e6e3;" data-darkreader-inline-fill=""/><path d="M0 0 C1.34380847 -0.01173486 1.34380847 -0.01173486 2.7147646 -0.02370679 C3.70006248 -0.01701463 4.68536036 -0.01032246 5.70051575 -0.00342751 C6.74635173 -0.00810748 7.79218771 -0.01278745 8.86971569 -0.01760924 C12.39132371 -0.02962206 15.91254708 -0.02007731 19.43415833 -0.01066017 C21.95187101 -0.01472307 24.46958192 -0.02006336 26.98728943 -0.02659035 C33.12612176 -0.03887756 39.26481049 -0.03704084 45.4036448 -0.02835242 C50.39163889 -0.02158436 55.37960213 -0.02065535 60.36759949 -0.02392387 C61.07681933 -0.02438357 61.78603917 -0.02484327 62.51675051 -0.0253169 C63.95740073 -0.02627605 65.39805093 -0.02724869 66.83870113 -0.02823468 C80.35588425 -0.0367946 93.87300639 -0.02694501 107.39017951 -0.01083358 C118.99503894 0.00257017 130.59980834 0.00024224 142.20466614 -0.01358986 C155.67262537 -0.02963506 169.14053112 -0.03597057 182.60849857 -0.02675307 C184.04392559 -0.02579739 185.47935262 -0.02485428 186.91477966 -0.02392387 C187.97423736 -0.02322963 187.97423736 -0.02322963 189.05509824 -0.02252137 C194.0385915 -0.01992829 199.02205092 -0.0243093 204.00553894 -0.03136253 C210.70975323 -0.04064233 217.41377077 -0.03405998 224.11797714 -0.01667976 C226.58392935 -0.01270039 229.04989583 -0.01387357 231.51584244 -0.02046776 C234.87137906 -0.028616 238.22636242 -0.01844291 241.5818634 -0.00342751 C242.56716128 -0.01011967 243.55245916 -0.01681184 244.56761456 -0.02370679 C245.46348687 -0.01588355 246.35935919 -0.00806031 247.28237915 0 C248.05728101 0.00048706 248.83218287 0.00097411 249.6305666 0.00147593 C251.64118958 0.37752342 251.64118958 0.37752342 254.64118958 3.37752342 C254.64118958 14.59752342 254.64118958 25.81752342 254.64118958 37.37752342 C168.18118958 37.37752342 81.72118958 37.37752342 -7.35881042 37.37752342 C-7.35881042 0.00462531 -7.35881042 0.00462531 0 0 Z " transform="translate(26.358810424804688,43.62247657775879)" style="fill: rgb(0, 237, 99); --darkreader-inline-fill: #26ff81;" data-darkreader-inline-fill=""/><path d="M0 0 C28.38 0 56.76 0 86 0 C86 18.81 86 37.62 86 57 C57.62 57 29.24 57 0 57 C0 38.19 0 19.38 0 0 Z " transform="translate(107,144)" style="fill: rgb(0, 0, 0); --darkreader-inline-fill: #e8e6e3;" data-darkreader-inline-fill=""/><path d="M0 0 C28.38 0 56.76 0 86 0 C86 17.49 86 34.98 86 53 C57.62 53 29.24 53 0 53 C0 35.51 0 18.02 0 0 Z " transform="translate(107,86)" style="fill: rgb(0, 0, 0); --darkreader-inline-fill: #e8e6e3;" data-darkreader-inline-fill=""/><path d="M0 0 C26.73 0 53.46 0 81 0 C81 18.48 81 36.96 81 56 C54.27 56 27.54 56 0 56 C0 37.52 0 19.04 0 0 Z " transform="translate(199,145)" style="fill: rgb(0, 0, 0); --darkreader-inline-fill: #e8e6e3;" data-darkreader-inline-fill=""/><path d="M0 0 C26.73 0 53.46 0 81 0 C81 18.48 81 36.96 81 56 C54.27 56 27.54 56 0 56 C0 37.52 0 19.04 0 0 Z " transform="translate(20,145)" style="fill: rgb(0, 0, 0); --darkreader-inline-fill: #e8e6e3;" data-darkreader-inline-fill=""/><path d="M0 0 C26.73 0 53.46 0 81 0 C81 17.49 81 34.98 81 53 C54.27 53 27.54 53 0 53 C0 35.51 0 18.02 0 0 Z " transform="translate(199,86)" style="fill: rgb(0, 0, 0); --darkreader-inline-fill: #e8e6e3;" data-darkreader-inline-fill=""/><path d="M0 0 C26.73 0 53.46 0 81 0 C81 17.49 81 34.98 81 53 C54.27 53 27.54 53 0 53 C0 35.51 0 18.02 0 0 Z " transform="translate(20,86)" style="fill: rgb(0, 0, 0); --darkreader-inline-fill: #e8e6e3;" data-darkreader-inline-fill=""/><path d="M0 0 C28.38 0 56.76 0 86 0 C86 16.17 86 32.34 86 49 C57.62 49 29.24 49 0 49 C0 32.83 0 16.66 0 0 Z " transform="translate(107,207)" style="fill: rgb(0, 0, 0); --darkreader-inline-fill: #e8e6e3;" data-darkreader-inline-fill=""/><path d="M0 0 C26.73 0 53.46 0 81 0 C81.04125 7.54875 81.0825 15.0975 81.125 22.875 C81.14320801 25.25831543 81.16141602 27.64163086 81.18017578 30.09716797 C81.18601507 31.97883885 81.19111196 33.86051225 81.1953125 35.7421875 C81.20554443 36.72517822 81.21577637 37.70816895 81.22631836 38.72094727 C81.22668091 40.12147339 81.22668091 40.12147339 81.22705078 41.55029297 C81.231492 42.3630368 81.23593323 43.17578064 81.24050903 44.01315308 C81 46 81 46 79 48 C76.47023465 48.1878075 74.05092595 48.25191906 71.52099609 48.22705078 C70.75017197 48.22734283 69.97934784 48.22763489 69.18516541 48.22793579 C66.63114255 48.22653974 64.07740954 48.21096579 61.5234375 48.1953125 C59.75509806 48.19158334 57.98675655 48.18873591 56.21841431 48.18673706 C51.55930905 48.17909293 46.90032806 48.15943778 42.24127197 48.1373291 C36.65376351 48.11329476 31.06621355 48.1040934 25.47866821 48.09242249 C16.98569232 48.07301379 8.49298922 48.03469673 0 48 C0 32.16 0 16.32 0 0 Z " transform="translate(199,207)" style="fill: rgb(0, 0, 0); --darkreader-inline-fill: #e8e6e3;" data-darkreader-inline-fill=""/><path d="M0 0 C26.73 0 53.46 0 81 0 C81 15.84 81 31.68 81 48 C61.36450956 48.08021762 61.36450956 48.08021762 53.015625 48.09765625 C47.31148575 48.109627 41.6074105 48.12381121 35.90332031 48.15087891 C31.30625073 48.17255773 26.70924976 48.18455812 22.11213303 48.18975449 C20.35539036 48.19345919 18.59865159 48.20069322 16.84193802 48.21146011 C14.38754312 48.22590924 11.93343427 48.22798073 9.47900391 48.22705078 C8.74748611 48.23424133 8.01596832 48.24143188 7.26228333 48.24884033 C2.22810432 48.22810432 2.22810432 48.22810432 0 46 C-0.24050903 44.01315308 -0.24050903 44.01315308 -0.22705078 41.55029297 C-0.22680908 40.61660889 -0.22656738 39.6829248 -0.22631836 38.72094727 C-0.21608643 37.73795654 -0.20585449 36.75496582 -0.1953125 35.7421875 C-0.19329834 34.83992432 -0.19128418 33.93766113 -0.18920898 33.00805664 C-0.17872704 29.63031955 -0.15080454 26.25265479 -0.125 22.875 C-0.08375 15.32625 -0.0425 7.7775 0 0 Z " transform="translate(20,207)" style="fill: rgb(0, 0, 0); --darkreader-inline-fill: #e8e6e3;" data-darkreader-inline-fill=""/></svg>