<svg width="360" height="360" viewBox="0 0 360 360" fill="none" xmlns="http://www.w3.org/2000/svg">
<path d="M109.25 108.25V143.875C109.25 163.54 93.29 179.5 73.625 179.5C53.96 179.5 38 195.46 38 215.125C38 234.79 53.96 250.75 73.625 250.75H144.875C164.54 250.75 180.5 266.71 180.5 286.375C180.5 306.04 196.46 322 216.125 322L287.375 322C307.04 322 323 306.04 323 286.375L323 215.125C323 195.46 307.04 179.5 287.375 179.5C267.71 179.5 251.75 163.54 251.75 143.875C251.75 124.21 267.71 108.25 287.375 108.25C307.04 108.25 323 92.29 323 72.625C323 52.96 307.04 37 287.375 37L180.215 37C141.17 37.285 109.25 69.205 109.25 108.25Z" fill="#B1FF05"/>
<path d="M312 57C315.362 57 318.649 56.003 321.445 54.135C324.24 52.267 326.419 49.612 327.706 46.5056C328.993 43.3993 329.329 39.9811 328.673 36.6835C328.017 33.3858 326.398 30.3567 324.021 27.9792C321.643 25.6017 318.614 23.9826 315.317 23.3267C312.019 22.6707 308.601 23.0073 305.494 24.294C302.388 25.5807 299.733 27.7597 297.865 30.5553C295.997 33.3509 295 36.6377 295 40C294.998 42.233 295.437 44.4444 296.29 46.5078C297.144 48.5711 298.396 50.446 299.975 52.0249C301.554 53.6039 303.429 54.856 305.492 55.7097C307.556 56.5634 309.767 57.0018 312 57Z" fill="white" stroke="#001E2B" stroke-width="1.2" stroke-miterlimit="10"/>
<path d="M301.693 53.5553C301.693 53.5553 323.156 46.3453 326.238 30.5586C329.85 35.5373 331.398 46.8613 323.323 52.872C315.249 58.8826 307.355 56.8186 301.693 53.5553Z" fill="#001E2B"/>
<path d="M56.5747 307L67.289 316.481L77.9942 325.854L64.4971 330.432L51 334.964L53.7828 321.023L56.5747 307Z" fill="white" stroke="#001E2B" stroke-width="1.2" stroke-miterlimit="10"/>
<path d="M61.7052 322.174L51 335L77.9942 325.854L61.7052 322.174Z" fill="#001E2B"/>
<path d="M61.7057 322.174L56.5752 307" stroke="#001E2B" stroke-width="1.2" stroke-miterlimit="10"/>
<path d="M299.892 89.5037H46.1875C42.6489 89.5037 39.7803 92.3561 39.7803 95.8748V270.094C39.7803 273.613 42.6489 276.465 46.1875 276.465H299.892C303.431 276.465 306.3 273.613 306.3 270.094V95.8748C306.3 92.3561 303.431 89.5037 299.892 89.5037Z" fill="#001E2B" stroke="#001E2B" stroke-width="1.2" stroke-miterlimit="10"/>
<path d="M80.958 178.73L80.958 279.83C80.958 281.394 81.2662 282.943 81.8651 284.389C82.4639 285.834 83.3417 287.147 84.4481 288.253C85.5546 289.359 86.8682 290.236 88.3137 290.835C89.7593 291.433 91.3085 291.74 92.873 291.74H236.503" stroke="#00684A" stroke-width="1.2" stroke-miterlimit="10" stroke-dasharray="2 2"/>
<path d="M79.0801 177.324C79.0801 176.953 79.1903 176.589 79.3969 176.28C79.6035 175.971 79.8971 175.73 80.2406 175.587C80.5842 175.445 80.9622 175.408 81.3269 175.48C81.6915 175.553 82.0265 175.732 82.2894 175.995C82.5524 176.258 82.7314 176.593 82.804 176.958C82.8765 177.322 82.8393 177.7 82.697 178.044C82.5547 178.387 82.3137 178.681 82.0046 178.888C81.6954 179.094 81.3319 179.204 80.9601 179.204C80.4615 179.204 79.9833 179.006 79.6307 178.654C79.2782 178.301 79.0801 177.823 79.0801 177.324Z" fill="#00684A"/>
<path d="M80.0499 235.53H49.8799C47.3603 235.53 44.944 234.529 43.1624 232.748C41.3808 230.966 40.3799 228.55 40.3799 226.03V198.22" stroke="#00684A" stroke-width="1.2" stroke-miterlimit="10" stroke-dasharray="2 2"/>
<path d="M42.2639 198.309C42.2639 197.937 42.1537 197.574 41.9471 197.264C41.7405 196.955 41.4469 196.714 41.1034 196.572C40.7598 196.43 40.3818 196.393 40.0171 196.465C39.6524 196.538 39.3175 196.717 39.0545 196.98C38.7916 197.243 38.6126 197.578 38.54 197.942C38.4675 198.307 38.5047 198.685 38.647 199.028C38.7893 199.372 39.0303 199.666 39.3394 199.872C39.6486 200.079 40.0121 200.189 40.3839 200.189C40.8821 200.188 41.3595 199.989 41.7118 199.637C42.0641 199.285 42.2626 198.807 42.2639 198.309Z" fill="#00684A"/>
<path d="M126.97 291.74V303.74C126.969 304.448 127.108 305.149 127.379 305.803C127.649 306.457 128.046 307.052 128.547 307.553C129.048 308.053 129.642 308.45 130.296 308.721C130.951 308.991 131.652 309.13 132.36 309.13H153.82" stroke="#00684A" stroke-width="1.2" stroke-miterlimit="10" stroke-dasharray="2 2"/>
<path d="M153.729 310.999C154.767 310.999 155.609 310.158 155.609 309.119C155.609 308.081 154.767 307.239 153.729 307.239C152.69 307.239 151.849 308.081 151.849 309.119C151.849 310.158 152.69 310.999 153.729 310.999Z" fill="#00684A"/>
<path d="M236.384 293.704C237.422 293.704 238.264 292.862 238.264 291.824C238.264 290.786 237.422 289.944 236.384 289.944C235.346 289.944 234.504 290.786 234.504 291.824C234.504 292.862 235.346 293.704 236.384 293.704Z" fill="#00684A"/>
<path d="M164.958 177.714V76.6136C164.958 75.0492 165.266 73.5 165.865 72.0547C166.464 70.6094 167.342 69.2962 168.448 68.1902C169.555 67.0842 170.868 66.207 172.314 65.6088C173.759 65.0106 175.309 64.703 176.873 64.7037L280.503 64.7037" stroke="#00684A" stroke-width="1.2" stroke-miterlimit="10" stroke-dasharray="2 2"/>
<path d="M163.08 179.119C163.08 179.491 163.19 179.854 163.397 180.163C163.604 180.473 163.897 180.714 164.241 180.856C164.584 180.998 164.962 181.035 165.327 180.963C165.692 180.89 166.027 180.711 166.289 180.448C166.552 180.185 166.731 179.85 166.804 179.486C166.876 179.121 166.839 178.743 166.697 178.4C166.555 178.056 166.314 177.762 166.005 177.556C165.695 177.349 165.332 177.239 164.96 177.239C164.461 177.239 163.983 177.437 163.631 177.79C163.278 178.142 163.08 178.62 163.08 179.119Z" fill="#00684A"/>
<path d="M164.05 120.913H133.88C131.36 120.913 128.944 121.914 127.162 123.696C125.381 125.477 124.38 127.894 124.38 130.413V158.223" stroke="#00684A" stroke-width="1.2" stroke-miterlimit="10" stroke-dasharray="2 2"/>
<path d="M126.264 158.134C126.264 158.506 126.154 158.87 125.947 159.179C125.74 159.488 125.447 159.729 125.103 159.871C124.76 160.014 124.382 160.051 124.017 159.978C123.652 159.906 123.317 159.727 123.055 159.464C122.792 159.201 122.613 158.866 122.54 158.501C122.467 158.136 122.505 157.758 122.647 157.415C122.789 157.071 123.03 156.778 123.339 156.571C123.649 156.365 124.012 156.254 124.384 156.254C124.882 156.256 125.36 156.454 125.712 156.806C126.064 157.159 126.263 157.636 126.264 158.134Z" fill="#00684A"/>
<path d="M210.97 64.7036V52.7036C210.969 51.9956 211.108 51.2944 211.379 50.6402C211.649 49.9859 212.046 49.3915 212.547 48.8908C213.048 48.3902 213.642 47.9932 214.296 47.7225C214.951 47.4519 215.652 47.3129 216.36 47.3136H237.82" stroke="#00684A" stroke-width="1.2" stroke-miterlimit="10" stroke-dasharray="2 2"/>
<path d="M237.729 45.4441C238.767 45.4441 239.609 46.2858 239.609 47.3241C239.609 48.3624 238.767 49.2041 237.729 49.2041C236.69 49.2041 235.849 48.3624 235.849 47.3241C235.849 46.2858 236.69 45.4441 237.729 45.4441Z" fill="#00684A"/>
<path d="M280.384 62.739C281.422 62.739 282.264 63.5807 282.264 64.619C282.264 65.6573 281.422 66.499 280.384 66.499C279.346 66.499 278.504 65.6573 278.504 64.619C278.504 63.5807 279.346 62.739 280.384 62.739Z" fill="#00684A"/>
<path d="M289.145 78.9128H36.3091C32.7826 78.9128 29.9238 81.7716 29.9238 85.2982V259.905C29.9238 263.431 32.7826 266.29 36.3091 266.29H289.145C292.672 266.29 295.53 263.431 295.53 259.905V85.2982C295.53 81.7716 292.672 78.9128 289.145 78.9128Z" fill="white" stroke="#001E2B" stroke-width="1.2" stroke-miterlimit="10"/>
<path d="M37.2365 88.4518C38.7241 88.4518 39.93 87.2458 39.93 85.7582C39.93 84.2706 38.7241 83.0647 37.2365 83.0647C35.7489 83.0647 34.543 84.2706 34.543 85.7582C34.543 87.2458 35.7489 88.4518 37.2365 88.4518Z" fill="#00684A"/>
<path d="M44.8039 88.4518C46.2915 88.4518 47.4974 87.2458 47.4974 85.7582C47.4974 84.2706 46.2915 83.0647 44.8039 83.0647C43.3163 83.0647 42.1104 84.2706 42.1104 85.7582C42.1104 87.2458 43.3163 88.4518 44.8039 88.4518Z" fill="#00684A"/>
<path d="M52.3644 88.4518C53.852 88.4518 55.0579 87.2458 55.0579 85.7582C55.0579 84.2706 53.852 83.0647 52.3644 83.0647C50.8768 83.0647 49.6709 84.2706 49.6709 85.7582C49.6709 87.2458 50.8768 88.4518 52.3644 88.4518Z" fill="#00684A"/>
<path d="M29.9238 92.5229H295.684" stroke="#001E2B" stroke-width="1.2" stroke-miterlimit="10"/>
<path d="M280 172H225V187H280V172Z" fill="#E3FCF7"/>
<path d="M339 114H137V128H339V114Z" fill="#E3FCF7"/>
<path d="M316.307 144H188.307V157H316.307V144Z" fill="#E3FCF7"/>
<path d="M174 143H137V157H174V143Z" fill="#00ED64"/>
<path d="M339 231H52V245H339V231Z" fill="#E3FCF7"/>
<path d="M210 172H137V186H210V172Z" fill="#E3FCF7"/>
<path d="M50.672 224.52L63.024 198.28H65.616L53.264 224.52H50.672ZM60.7658 224.52L73.1178 198.28H75.7098L63.3578 224.52H60.7658ZM84.222 209.64C84.222 203.016 89.342 197.896 95.998 197.896C101.726 197.896 105.886 201.64 106.878 205.768H103.742C102.75 202.92 99.774 200.712 95.998 200.712C90.942 200.712 87.198 204.616 87.198 209.64C87.198 214.664 90.942 218.568 95.998 218.568C99.774 218.568 102.75 216.36 103.742 213.512H106.878C105.886 217.64 101.726 221.384 95.998 221.384C89.342 221.384 84.222 216.264 84.222 209.64ZM119.073 221L121.057 214.6H115.265L113.313 221H110.753L112.737 214.6H109.025V212.264H113.473L115.201 206.792H111.361V204.456H115.937L117.857 198.28H120.385L118.465 204.456H124.225L126.177 198.28H128.673L126.753 204.456H130.465V206.792H126.017L124.321 212.264H128.161V214.6H123.553L121.601 221H119.073ZM117.729 206.792L116.033 212.264H121.793L123.489 206.792H117.729Z" fill="#001E2B"/>
<path d="M321 202H147V217H321V202Z" fill="#E3FCF7"/>
<path d="M112.482 136.82C112.482 135.751 112.258 134.793 111.79 133.968C111.321 133.166 110.651 132.498 109.736 131.963C102.147 127.596 94.5354 123.228 86.9462 118.861C84.8926 117.68 82.9061 117.725 80.8748 118.928C77.8615 120.711 62.7277 129.356 58.1965 131.963C56.3439 133.032 55.4287 134.681 55.4287 136.798C55.4287 145.599 55.4287 154.378 55.4287 163.18C55.4287 164.227 55.6519 165.163 56.0983 165.965C56.5671 166.789 57.259 167.48 58.1965 168.037C62.7054 170.644 77.8392 179.289 80.8748 181.072C82.9061 182.275 84.8926 182.32 86.9462 181.139C94.5354 176.772 102.147 172.404 109.736 168.037C110.674 167.502 111.366 166.812 111.834 165.965C112.281 165.163 112.504 164.227 112.504 163.18C112.482 163.18 112.482 145.599 112.482 136.82Z" fill="#A179DC"/>
<path d="M84.0447 149.9L56.0986 165.965C56.5674 166.789 57.2593 167.48 58.1968 168.037C62.7057 170.644 77.8394 179.289 80.8751 181.072C82.9063 182.275 84.8929 182.32 86.9465 181.139C94.5357 176.772 102.147 172.404 109.736 168.037C110.674 167.502 111.366 166.812 111.835 165.965L84.0447 149.9Z" fill="#280068"/>
<path d="M112.481 136.82C112.481 135.751 112.258 134.793 111.789 133.968L84.0439 149.922L111.811 165.987C112.258 165.185 112.481 164.249 112.481 163.202C112.481 163.18 112.481 145.599 112.481 136.82Z" fill="#390091"/>
<path d="M100.495 143.906V146.914H103.509V143.906H105.004V146.914H108.017V148.407H105.004V151.415H108.017V152.908H105.004V155.916H103.509V152.908H100.495V155.916H98.9997V152.908H95.9863V151.415H98.9997V148.407H95.9863V146.914H98.9997V143.906H100.495ZM103.509 148.407H100.495V151.415H103.509V148.407Z" fill="white"/>
<path d="M84.1114 128.821C91.9461 128.821 98.7987 133.077 102.482 139.405L102.437 139.338L93.2184 144.641C91.4104 141.566 88.0622 139.494 84.2453 139.449H84.1337C78.3079 139.449 73.5758 144.173 73.5758 149.989C73.5758 151.883 74.0892 153.688 74.9597 155.225C76.79 158.389 80.2052 160.528 84.1337 160.528C88.0845 160.528 91.522 158.367 93.33 155.158L93.2854 155.225L102.504 160.55C98.8656 166.812 92.1247 171.067 84.3569 171.134H84.1114C76.232 171.134 69.3794 166.856 65.7187 160.506C63.933 157.409 62.9062 153.799 62.9062 149.967C62.9062 138.313 72.3927 128.821 84.1114 128.821Z" fill="white"/>
</svg>
