<svg width="360" height="360" viewBox="0 0 360 360" fill="none" xmlns="http://www.w3.org/2000/svg">
<path d="M37.999 250.963V143.981C37.999 124.297 53.959 108.036 73.909 108.036H144.589C164.254 108.036 180.214 92.0596 180.499 72.3749C180.499 52.6902 196.744 36.9995 216.409 36.9995H287.089C306.754 36.9995 322.999 52.9755 322.999 72.6602V143.411C322.999 163.381 306.754 179.357 287.089 179.357H216.124C196.459 179.357 180.214 195.333 180.214 215.018V250.963C180.214 290.333 148.294 322 108.964 322C69.634 322 37.999 290.048 37.999 250.963Z" fill="#00D2FF"/>
<path d="M320.462 310.925L317.376 323.265L307.733 329.682L309.381 318.935L320.462 310.925Z" fill="#001E2B" stroke="#001E2B" stroke-width="1.2" stroke-miterlimit="10" stroke-linejoin="round"/>
<path d="M307.493 329.414L292.415 322.406L295.081 311.744L310.16 318.752L307.493 329.414Z" fill="white" stroke="#001E2B" stroke-width="1.2" stroke-linecap="round" stroke-linejoin="round"/>
<path d="M310.16 318.751L320.091 310.976L295.081 311.743L310.16 318.751Z" fill="white" stroke="#001E2B" stroke-width="1.2" stroke-linecap="round" stroke-linejoin="round"/>
<path d="M67.4897 61.2176L86.047 60.0457L94.7858 40.9564L76.4662 41.5813L67.4897 61.2176Z" fill="#001E2B" stroke="#001E2B" stroke-width="1.2" stroke-miterlimit="10" stroke-linejoin="round"/>
<path d="M67.4336 61.2063L56.2068 46.387L64.9382 27.291L76.4308 41.5618L67.4336 61.2063Z" fill="white" stroke="#001E2B" stroke-width="1.2" stroke-miterlimit="10" stroke-linejoin="round"/>
<path d="M83.1861 26.8954L94.7869 40.9566L76.4312 41.5623L64.9386 27.2915L83.1861 26.8954Z" fill="white" stroke="#001E2B" stroke-width="1.2" stroke-miterlimit="10" stroke-linejoin="round"/>
<path d="M299.892 89.5037H46.1875C42.6489 89.5037 39.7803 92.3561 39.7803 95.8748V270.094C39.7803 273.613 42.6489 276.465 46.1875 276.465H299.892C303.431 276.465 306.3 273.613 306.3 270.094V95.8748C306.3 92.3561 303.431 89.5037 299.892 89.5037Z" fill="#001E2B" stroke="#001E2B" stroke-width="1.2" stroke-miterlimit="10"/>
<path d="M249.81 178.73V279.83C249.81 281.394 249.501 282.943 248.902 284.389C248.304 285.834 247.426 287.147 246.319 288.253C245.213 289.359 243.899 290.236 242.454 290.835C241.008 291.433 239.459 291.74 237.895 291.74H94.2646" stroke="#006CFA" stroke-width="1.2" stroke-miterlimit="10" stroke-dasharray="2 2"/>
<path d="M251.688 177.324C251.687 176.953 251.577 176.589 251.371 176.28C251.164 175.971 250.87 175.73 250.527 175.587C250.183 175.445 249.805 175.408 249.441 175.48C249.076 175.553 248.741 175.732 248.478 175.995C248.215 176.258 248.036 176.593 247.964 176.958C247.891 177.322 247.928 177.7 248.071 178.044C248.213 178.387 248.454 178.681 248.763 178.888C249.072 179.094 249.436 179.204 249.807 179.204C250.306 179.204 250.784 179.006 251.137 178.654C251.489 178.301 251.687 177.823 251.688 177.324V177.324Z" fill="#006CFA"/>
<path d="M250.718 235.53H280.888C283.407 235.53 285.824 234.529 287.605 232.748C289.387 230.966 290.388 228.55 290.388 226.03V198.22" stroke="#006CFA" stroke-width="1.2" stroke-miterlimit="10" stroke-dasharray="2 2"/>
<path d="M288.504 198.309C288.504 197.937 288.614 197.574 288.821 197.264C289.027 196.955 289.321 196.714 289.664 196.572C290.008 196.43 290.386 196.393 290.75 196.465C291.115 196.538 291.45 196.717 291.713 196.98C291.976 197.243 292.155 197.578 292.228 197.942C292.3 198.307 292.263 198.685 292.121 199.028C291.978 199.372 291.737 199.666 291.428 199.872C291.119 200.079 290.755 200.189 290.384 200.189C289.885 200.188 289.408 199.989 289.056 199.637C288.703 199.285 288.505 198.807 288.504 198.309V198.309Z" fill="#006CFA"/>
<path d="M203.798 291.74V303.74C203.799 304.448 203.66 305.149 203.389 305.803C203.118 306.457 202.721 307.052 202.221 307.553C201.72 308.053 201.126 308.45 200.471 308.721C199.817 308.991 199.116 309.13 198.408 309.13H176.948" stroke="#006CFA" stroke-width="1.2" stroke-miterlimit="10" stroke-dasharray="2 2"/>
<path d="M177.039 310.999C176.001 310.999 175.159 310.158 175.159 309.119C175.159 308.081 176.001 307.239 177.039 307.239C178.077 307.239 178.919 308.081 178.919 309.119C178.919 310.158 178.077 310.999 177.039 310.999Z" fill="#006CFA"/>
<path d="M94.3837 293.704C93.3454 293.704 92.5037 292.862 92.5037 291.824C92.5037 290.786 93.3454 289.944 94.3837 289.944C95.422 289.944 96.2637 290.786 96.2637 291.824C96.2637 292.862 95.422 293.704 94.3837 293.704Z" fill="#006CFA"/>
<path d="M157.55 160.025V78.8146C157.55 77.2502 157.858 75.7011 158.457 74.2557C159.056 72.8104 159.933 71.4973 161.04 70.3912C162.146 69.2852 163.46 68.4081 164.906 67.8098C166.351 67.2116 167.9 66.904 169.465 66.9047H273.316" stroke="#006CFA" stroke-width="1.2" stroke-miterlimit="10" stroke-dasharray="2 2"/>
<path d="M155.667 161.431C155.667 161.802 155.777 162.166 155.984 162.475C156.19 162.784 156.484 163.025 156.828 163.167C157.171 163.31 157.549 163.347 157.914 163.274C158.278 163.202 158.613 163.023 158.876 162.76C159.139 162.497 159.318 162.162 159.391 161.797C159.463 161.433 159.426 161.055 159.284 160.711C159.142 160.368 158.901 160.074 158.591 159.867C158.282 159.661 157.919 159.551 157.547 159.551C157.048 159.551 156.57 159.749 156.218 160.101C155.865 160.454 155.667 160.932 155.667 161.431V161.431Z" fill="#006CFA"/>
<path d="M156.642 123.114H126.472C123.952 123.114 121.536 124.115 119.754 125.897C117.973 127.678 116.972 130.095 116.972 132.614V140.535" stroke="#006CFA" stroke-width="1.2" stroke-miterlimit="10" stroke-dasharray="2 2"/>
<path d="M118.856 140.444C118.856 140.816 118.745 141.18 118.539 141.489C118.332 141.798 118.039 142.039 117.695 142.181C117.352 142.324 116.974 142.361 116.609 142.288C116.244 142.216 115.909 142.037 115.646 141.774C115.383 141.511 115.204 141.176 115.132 140.811C115.059 140.447 115.097 140.069 115.239 139.725C115.381 139.381 115.622 139.088 115.931 138.881C116.24 138.675 116.604 138.564 116.976 138.564C117.474 138.566 117.951 138.764 118.304 139.117C118.656 139.469 118.854 139.946 118.856 140.444V140.444Z" fill="#006CFA"/>
<path d="M203.562 66.9048V54.9048C203.561 54.1968 203.7 53.4956 203.97 52.8413C204.241 52.1871 204.638 51.5926 205.139 51.092C205.639 50.5914 206.234 50.1943 206.888 49.9237C207.542 49.6531 208.244 49.5141 208.952 49.5148H230.412" stroke="#006CFA" stroke-width="1.2" stroke-miterlimit="10" stroke-dasharray="2 2"/>
<path d="M230.318 47.6443C231.356 47.6443 232.197 48.486 232.197 49.5243C232.197 50.5626 231.356 51.4043 230.318 51.4043C229.279 51.4043 228.438 50.5626 228.438 49.5243C228.438 48.486 229.279 47.6443 230.318 47.6443Z" fill="#006CFA"/>
<path d="M273.88 64.9998C274.918 64.9998 275.76 65.8415 275.76 66.8798C275.76 67.9181 274.918 68.7598 273.88 68.7598C272.842 68.7598 272 67.9181 272 66.8798C272 65.8415 272.842 64.9998 273.88 64.9998Z" fill="#006CFA"/>
<path d="M289.145 78.9128H36.3091C32.7826 78.9128 29.9238 81.7716 29.9238 85.2982V259.905C29.9238 263.431 32.7826 266.29 36.3091 266.29H289.145C292.672 266.29 295.53 263.431 295.53 259.905V85.2982C295.53 81.7716 292.672 78.9128 289.145 78.9128Z" fill="white" stroke="#001E2B" stroke-width="1.2" stroke-miterlimit="10"/>
<path d="M37.2365 88.4518C38.7241 88.4518 39.93 87.2458 39.93 85.7582C39.93 84.2706 38.7241 83.0647 37.2365 83.0647C35.7489 83.0647 34.543 84.2706 34.543 85.7582C34.543 87.2458 35.7489 88.4518 37.2365 88.4518Z" fill="#006CFA"/>
<path d="M44.8039 88.4518C46.2915 88.4518 47.4974 87.2458 47.4974 85.7582C47.4974 84.2706 46.2915 83.0647 44.8039 83.0647C43.3163 83.0647 42.1104 84.2706 42.1104 85.7582C42.1104 87.2458 43.3163 88.4518 44.8039 88.4518Z" fill="#006CFA"/>
<path d="M52.3644 88.4518C53.852 88.4518 55.0579 87.2458 55.0579 85.7582C55.0579 84.2706 53.852 83.0647 52.3644 83.0647C50.8768 83.0647 49.6709 84.2706 49.6709 85.7582C49.6709 87.2458 50.8768 88.4518 52.3644 88.4518Z" fill="#006CFA"/>
<path d="M29.9238 92.5229H295.684" stroke="#001E2B" stroke-width="1.2" stroke-miterlimit="10"/>
<path d="M109.578 162C110.024 161.227 110.301 160.356 110.301 159.574V132.426C110.301 131.644 110.024 130.773 109.578 130L81.8652 146L109.578 162Z" fill="#00599C"/>
<path d="M84.3276 177.413L107.839 163.839C108.516 163.448 109.131 162.773 109.578 162L81.865 146L54.1523 162C54.5986 162.773 55.2143 163.448 55.8914 163.839L79.4024 177.413C80.7567 178.195 82.9732 178.195 84.3276 177.413Z" fill="#004482"/>
<path d="M109.578 130C109.131 129.227 108.516 128.552 107.838 128.16L84.3275 114.587C82.9732 113.804 80.7566 113.804 79.4023 114.587L55.8913 128.16C54.5368 128.942 53.4287 130.862 53.4287 132.426V159.574C53.4287 160.356 53.7058 161.227 54.1523 162L81.8649 146L109.578 130Z" fill="#659AD2"/>
<path d="M81.8647 164.957C71.4115 164.957 62.9072 156.453 62.9072 146C62.9072 135.547 71.4115 127.042 81.8647 127.042C88.6098 127.042 94.9005 130.672 98.2817 136.515L90.0774 141.263C88.3851 138.338 85.238 136.521 81.8647 136.521C76.638 136.521 72.386 140.773 72.386 146C72.386 151.226 76.638 155.479 81.8647 155.479C85.2384 155.479 88.3855 153.662 90.0779 150.737L98.2822 155.484C94.9011 161.327 88.6102 164.957 81.8647 164.957Z" fill="white"/>
<path d="M100.822 144.947H98.7156V142.84H96.6094V144.947H94.5029V147.053H96.6094V149.159H98.7156V147.053H100.822V144.947Z" fill="white"/>
<path d="M108.721 144.947H106.615V142.84H104.509V144.947H102.402V147.053H104.509V149.159H106.615V147.053H108.721V144.947Z" fill="white"/>
<path d="M280 172H225V187H280V172Z" fill="#E3FCF7"/>
<path d="M339 114H137V128H339V114Z" fill="#E3FCF7"/>
<path d="M316.307 144H188.307V157H316.307V144Z" fill="#E3FCF7"/>
<path d="M174 143H137V157H174V143Z" fill="#00ED64"/>
<path d="M339 231H52V245H339V231Z" fill="#E3FCF7"/>
<path d="M210 172H137V186H210V172Z" fill="#E3FCF7"/>
<path d="M50.672 224.52L63.024 198.28H65.616L53.264 224.52H50.672ZM60.7658 224.52L73.1178 198.28H75.7098L63.3578 224.52H60.7658ZM84.222 209.64C84.222 203.016 89.342 197.896 95.998 197.896C101.726 197.896 105.886 201.64 106.878 205.768H103.742C102.75 202.92 99.774 200.712 95.998 200.712C90.942 200.712 87.198 204.616 87.198 209.64C87.198 214.664 90.942 218.568 95.998 218.568C99.774 218.568 102.75 216.36 103.742 213.512H106.878C105.886 217.64 101.726 221.384 95.998 221.384C89.342 221.384 84.222 216.264 84.222 209.64ZM109.185 212.968V210.504H114.721V205H117.217V210.504H122.721V212.968H117.217V218.472H114.721V212.968H109.185ZM125.185 212.968V210.504H130.721V205H133.217V210.504H138.721V212.968H133.217V218.472H130.721V212.968H125.185Z" fill="#001E2B"/>
<path d="M321 202H155V217H321V202Z" fill="#E3FCF7"/>
</svg>
