<svg width="360" height="360" viewBox="0 0 360 360" fill="none" xmlns="http://www.w3.org/2000/svg">
<path d="M73.625 36.9998H216.125C235.79 36.9998 251.75 52.9757 251.75 72.6604C251.75 92.3451 267.71 108.321 287.375 108.321C307.04 108.321 323 124.297 323 143.982C323 163.666 307.04 179.642 287.375 179.642H215.555C195.89 179.642 179.93 195.618 179.93 215.303V250.964C179.93 290.333 148.01 322 108.965 322C69.6351 322 38 290.333 38 250.964V72.6604C38.285 52.9757 53.96 36.9998 73.625 36.9998Z" fill="#FFE212"/>
<path d="M75.557 20.4114L93.2507 29.7738L110.896 38.9914L94.0511 49.6635L77.1911 60.2739L76.3814 40.3996L75.557 20.4114Z" fill="white" stroke="#001E2B" stroke-width="1.2" stroke-miterlimit="10"/>
<path d="M87.5345 39.3543L77.204 60.3231L110.897 38.9912L87.5345 39.3543Z" fill="#001E2B"/>
<path d="M87.5342 39.3538L75.5576 20.4106" stroke="#001E2B" stroke-width="1.2" stroke-miterlimit="10"/>
<path d="M291.188 332.868L306.59 331.896L313.843 316.052L298.638 316.571L291.188 332.868Z" fill="#001E2B" stroke="#001E2B" stroke-width="1.2" stroke-miterlimit="10" stroke-linejoin="round"/>
<path d="M291.14 332.859L281.822 320.559L289.069 304.71L298.608 316.555L291.14 332.859Z" fill="white" stroke="#001E2B" stroke-width="1.2" stroke-miterlimit="10" stroke-linejoin="round"/>
<path d="M304.214 304.382L313.842 316.052L298.607 316.555L289.069 304.71L304.214 304.382Z" fill="white" stroke="#001E2B" stroke-width="1.2" stroke-miterlimit="10" stroke-linejoin="round"/>
<path d="M299.892 89.5037H46.1875C42.6489 89.5037 39.7803 92.3561 39.7803 95.8748V270.094C39.7803 273.613 42.6489 276.465 46.1875 276.465H299.892C303.431 276.465 306.3 273.613 306.3 270.094V95.8748C306.3 92.3561 303.431 89.5037 299.892 89.5037Z" fill="#001E2B" stroke="#001E2B" stroke-width="1.2" stroke-miterlimit="10"/>
<path d="M244.81 181.73V282.83C244.81 284.394 244.501 285.943 243.902 287.389C243.304 288.834 242.426 290.147 241.319 291.253C240.213 292.359 238.899 293.236 237.454 293.835C236.008 294.433 234.459 294.74 232.895 294.74H89.2646" stroke="#FF9F10" stroke-width="1.2" stroke-miterlimit="10" stroke-dasharray="2 2"/>
<path d="M246.688 180.324C246.687 179.953 246.577 179.589 246.371 179.28C246.164 178.971 245.87 178.73 245.527 178.587C245.183 178.445 244.805 178.408 244.441 178.48C244.076 178.553 243.741 178.732 243.478 178.995C243.215 179.258 243.036 179.593 242.964 179.958C242.891 180.322 242.928 180.7 243.071 181.044C243.213 181.387 243.454 181.681 243.763 181.888C244.072 182.094 244.436 182.204 244.807 182.204C245.306 182.204 245.784 182.006 246.137 181.654C246.489 181.301 246.687 180.823 246.688 180.324Z" fill="#FF9F10"/>
<path d="M245.718 238.53H275.888C278.407 238.53 280.824 237.529 282.605 235.748C284.387 233.966 285.388 231.55 285.388 229.03V201.22" stroke="#FF9F10" stroke-width="1.2" stroke-miterlimit="10" stroke-dasharray="2 2"/>
<path d="M283.504 201.309C283.504 200.937 283.614 200.574 283.821 200.264C284.027 199.955 284.321 199.714 284.664 199.572C285.008 199.43 285.386 199.393 285.75 199.465C286.115 199.538 286.45 199.717 286.713 199.98C286.976 200.243 287.155 200.578 287.228 200.942C287.3 201.307 287.263 201.685 287.121 202.028C286.978 202.372 286.737 202.666 286.428 202.872C286.119 203.079 285.755 203.189 285.384 203.189C284.885 203.188 284.408 202.989 284.056 202.637C283.703 202.285 283.505 201.807 283.504 201.309Z" fill="#FF9F10"/>
<path d="M198.798 294.74V306.74C198.799 307.448 198.66 308.149 198.389 308.803C198.118 309.457 197.721 310.052 197.221 310.553C196.72 311.053 196.126 311.45 195.471 311.721C194.817 311.991 194.116 312.13 193.408 312.13H171.948" stroke="#FF9F10" stroke-width="1.2" stroke-miterlimit="10" stroke-dasharray="2 2"/>
<path d="M172.039 313.999C171.001 313.999 170.159 313.158 170.159 312.119C170.159 311.081 171.001 310.239 172.039 310.239C173.077 310.239 173.919 311.081 173.919 312.119C173.919 313.158 173.077 313.999 172.039 313.999Z" fill="#FF9F10"/>
<path d="M89.3837 296.704C88.3454 296.704 87.5037 295.862 87.5037 294.824C87.5037 293.786 88.3454 292.944 89.3837 292.944C90.422 292.944 91.2637 293.786 91.2637 294.824C91.2637 295.862 90.422 296.704 89.3837 296.704Z" fill="#FF9F10"/>
<path d="M204.96 48.7295L204.96 145.829C204.96 147.394 205.268 148.943 205.867 150.388C206.466 151.834 207.344 153.147 208.45 154.253C209.557 155.359 210.87 156.236 212.316 156.834C213.761 157.433 215.31 157.74 216.875 157.739H270.505" stroke="#FF9F10" stroke-width="1.2" stroke-miterlimit="10" stroke-dasharray="2 2"/>
<path d="M203.082 48.3243C203.082 47.9525 203.192 47.589 203.399 47.2799C203.605 46.9707 203.899 46.7297 204.243 46.5874C204.586 46.4451 204.964 46.4079 205.329 46.4805C205.693 46.553 206.028 46.7321 206.291 46.995C206.554 47.2579 206.733 47.5929 206.806 47.9576C206.878 48.3223 206.841 48.7003 206.699 49.0438C206.557 49.3873 206.316 49.6809 206.007 49.8875C205.697 50.0941 205.334 50.2043 204.962 50.2043C204.463 50.2043 203.985 50.0063 203.633 49.6537C203.28 49.3011 203.082 48.823 203.082 48.3243Z" fill="#FF9F10"/>
<path d="M204.052 101.53H173.882C171.362 101.53 168.946 100.529 167.164 98.7475C165.383 96.9659 164.382 94.5495 164.382 92.03V64.22" stroke="#FF9F10" stroke-width="1.2" stroke-miterlimit="10" stroke-dasharray="2 2"/>
<path d="M166.266 64.309C166.266 63.9371 166.156 63.5737 165.949 63.2645C165.742 62.9553 165.449 62.7144 165.105 62.5721C164.762 62.4298 164.384 62.3925 164.019 62.4651C163.654 62.5376 163.319 62.7167 163.057 62.9796C162.794 63.2425 162.615 63.5775 162.542 63.9422C162.469 64.3069 162.507 64.6849 162.649 65.0284C162.791 65.3719 163.032 65.6655 163.341 65.8721C163.651 66.0787 164.014 66.189 164.386 66.189C164.884 66.1876 165.361 65.9891 165.714 65.6369C166.066 65.2846 166.265 64.8072 166.266 64.309Z" fill="#FF9F10"/>
<path d="M250.972 157.74V169.74C250.971 170.448 251.11 171.149 251.381 171.803C251.651 172.457 252.048 173.052 252.549 173.552C253.05 174.053 253.644 174.45 254.298 174.721C254.952 174.991 255.654 175.13 256.362 175.13H277.822" stroke="#FF9F10" stroke-width="1.2" stroke-miterlimit="10" stroke-dasharray="2 2"/>
<path d="M277.731 176.999C278.769 176.999 279.611 176.157 279.611 175.119C279.611 174.081 278.769 173.239 277.731 173.239C276.692 173.239 275.851 174.081 275.851 175.119C275.851 176.157 276.692 176.999 277.731 176.999Z" fill="#FF9F10"/>
<path d="M280.386 159.704C281.424 159.704 282.266 158.862 282.266 157.824C282.266 156.786 281.424 155.944 280.386 155.944C279.348 155.944 278.506 156.786 278.506 157.824C278.506 158.862 279.348 159.704 280.386 159.704Z" fill="#FF9F10"/>
<path d="M289.145 78.9128H36.3091C32.7826 78.9128 29.9238 81.7716 29.9238 85.2982V259.905C29.9238 263.431 32.7826 266.29 36.3091 266.29H289.145C292.672 266.29 295.53 263.431 295.53 259.905V85.2982C295.53 81.7716 292.672 78.9128 289.145 78.9128Z" fill="white" stroke="#001E2B" stroke-width="1.2" stroke-miterlimit="10"/>
<path d="M37.2365 88.4518C38.7241 88.4518 39.93 87.2458 39.93 85.7582C39.93 84.2706 38.7241 83.0647 37.2365 83.0647C35.7489 83.0647 34.543 84.2706 34.543 85.7582C34.543 87.2458 35.7489 88.4518 37.2365 88.4518Z" fill="#FF9F10"/>
<path d="M44.8039 88.4518C46.2915 88.4518 47.4974 87.2458 47.4974 85.7582C47.4974 84.2706 46.2915 83.0647 44.8039 83.0647C43.3163 83.0647 42.1104 84.2706 42.1104 85.7582C42.1104 87.2458 43.3163 88.4518 44.8039 88.4518Z" fill="#FF9F10"/>
<path d="M52.3644 88.4518C53.852 88.4518 55.0579 87.2458 55.0579 85.7582C55.0579 84.2706 53.852 83.0647 52.3644 83.0647C50.8768 83.0647 49.6709 84.2706 49.6709 85.7582C49.6709 87.2458 50.8768 88.4518 52.3644 88.4518Z" fill="#FF9F10"/>
<path d="M29.9238 92.5229H295.684" stroke="#001E2B" stroke-width="1.2" stroke-miterlimit="10"/>
<path d="M280 172H225V187H280V172Z" fill="#E3FCF7"/>
<path d="M339 114H137V128H339V114Z" fill="#E3FCF7"/>
<path d="M316.307 144H188.307V157H316.307V144Z" fill="#E3FCF7"/>
<path d="M174 143H137V157H174V143Z" fill="#00ED64"/>
<path d="M339 231H52V245H339V231Z" fill="#E3FCF7"/>
<path d="M210 172H137V186H210V172Z" fill="#E3FCF7"/>
<path d="M50.672 224.52L63.024 198.28H65.616L53.264 224.52H50.672ZM60.7658 224.52L73.1178 198.28H75.7098L63.3578 224.52H60.7658ZM92.702 198.28C97.438 198.28 100.51 201.416 100.51 205.512C100.51 209.608 97.438 212.712 92.702 212.712H88.734V221H85.758V198.28H92.702ZM92.702 209.96C95.838 209.96 97.566 208.04 97.566 205.512C97.566 202.984 95.838 201.064 92.702 201.064H88.734V209.96H92.702ZM108.348 227.688H105.276L108.764 220.168L101.756 205H104.796L110.3 217.128L115.772 205H118.844L108.348 227.688ZM130.264 220.776C129.592 221 128.792 221.16 127.8 221.16C125.016 221.16 122.904 219.592 122.904 216.264V207.528H119.512V205H122.904V200.552H125.656V205H130.264V207.528H125.656V215.912C125.656 217.96 126.584 218.632 128.312 218.632C128.984 218.632 129.752 218.504 130.264 218.312V220.776ZM133.78 221V197H136.532V207.464C137.62 205.576 139.54 204.68 141.62 204.68C145.204 204.68 147.668 207.176 147.668 211.144V221H144.948V211.56C144.948 208.872 143.412 207.208 141.172 207.208C138.58 207.208 136.532 209.32 136.532 213.064V221H133.78ZM168.079 213C168.079 217.608 164.527 221.32 159.727 221.32C154.895 221.32 151.343 217.608 151.343 213C151.343 208.392 154.895 204.68 159.727 204.68C164.527 204.68 168.079 208.392 168.079 213ZM154.159 213C154.159 216.2 156.399 218.76 159.727 218.76C163.055 218.76 165.263 216.2 165.263 213C165.263 209.8 163.055 207.24 159.727 207.24C156.399 207.24 154.159 209.8 154.159 213ZM172.03 221V205H174.782V207.464C175.87 205.576 177.79 204.68 179.87 204.68C183.454 204.68 185.918 207.176 185.918 211.144V221H183.198V211.56C183.198 208.872 181.662 207.208 179.422 207.208C176.83 207.208 174.782 209.32 174.782 213.064V221H172.03Z" fill="#001E2B"/>
<path d="M321 202H204V217H321V202Z" fill="#E3FCF7"/>
<path d="M83.6116 117C80.9391 117 78.4531 117.249 76.2156 117.622C69.6898 118.802 68.5089 121.226 68.5089 125.639V131.543H83.9845V133.532H68.5089H62.7289C58.254 133.532 54.2764 136.205 53.0955 141.363C51.6661 147.267 51.6039 150.934 53.0955 157.087C54.2142 161.686 56.8246 164.918 61.2994 164.918H66.6444V157.895C66.6444 152.799 71.0571 148.262 76.2778 148.262H91.7533C96.0417 148.262 99.46 144.719 99.46 140.431V125.701C99.46 121.537 95.9174 118.367 91.7533 117.684C89.0187 117.186 86.2219 117 83.6116 117ZM75.2212 121.723C76.8372 121.723 78.1423 123.029 78.1423 124.707C78.1423 126.323 76.8372 127.628 75.2212 127.628C73.6053 127.628 72.3001 126.323 72.3001 124.707C72.3001 123.091 73.6053 121.723 75.2212 121.723Z" fill="url(#paint0_linear_1627_19027)"/>
<path d="M101.324 133.532V140.431C101.324 145.776 96.7874 150.251 91.6911 150.251H76.2155C71.9892 150.251 68.5088 153.856 68.5088 158.082V172.812C68.5088 176.976 72.1757 179.462 76.2155 180.643C81.1254 182.072 85.7867 182.321 91.6911 180.643C95.6066 179.524 99.3978 177.224 99.3978 172.812V166.907H83.9222V164.918H99.3978H107.104C111.579 164.918 113.257 161.811 114.811 157.087C116.427 152.24 116.365 147.578 114.811 141.363C113.692 136.888 111.579 133.532 107.104 133.532H101.324V133.532ZM92.6233 170.823C94.2392 170.823 95.5444 172.128 95.5444 173.744C95.5444 175.36 94.2392 176.727 92.6233 176.727C91.0074 176.727 89.7022 175.422 89.7022 173.744C89.7022 172.128 91.0074 170.823 92.6233 170.823Z" fill="url(#paint1_linear_1627_19027)"/>
<path opacity="0.4438" d="M104.805 190.711C104.805 192.948 95.5443 194.751 84.0464 194.751C72.6107 194.751 63.2881 192.948 63.2881 190.711C63.2881 188.474 72.5485 186.671 84.0464 186.671C95.5443 186.671 104.805 188.474 104.805 190.711Z" fill="url(#paint2_radial_1627_19027)"/>
<defs>
<linearGradient id="paint0_linear_1627_19027" x1="50.3334" y1="118.856" x2="86.0035" y2="149.248" gradientUnits="userSpaceOnUse">
<stop stop-color="#5A9FD4"/>
<stop offset="1" stop-color="#306998"/>
</linearGradient>
<linearGradient id="paint1_linear_1627_19027" x1="99.3878" y1="168.191" x2="86.5905" y2="150.26" gradientUnits="userSpaceOnUse">
<stop stop-color="#FFD43B"/>
<stop offset="1" stop-color="#FFE873"/>
</linearGradient>
<radialGradient id="paint2_radial_1627_19027" cx="0" cy="0" r="1" gradientUnits="userSpaceOnUse" gradientTransform="translate(84.1058 190.681) rotate(-90) scale(4.01867 17.6677)">
<stop stop-color="#B8B8B8" stop-opacity="0.498"/>
<stop offset="1" stop-color="#7F7F7F" stop-opacity="0"/>
</radialGradient>
</defs>
</svg>
