<svg width="334" height="334" viewBox="0 0 334 334" fill="none" xmlns="http://www.w3.org/2000/svg">
<path d="M109.25 108.25V143.875C109.25 163.54 93.29 179.5 73.625 179.5C53.96 179.5 38 195.46 38 215.125C38 234.79 53.96 250.75 73.625 250.75H144.875C164.54 250.75 180.5 266.71 180.5 286.375C180.5 306.04 196.46 322 216.125 322L287.375 322C307.04 322 323 306.04 323 286.375L323 215.125C323 195.46 307.04 179.5 287.375 179.5C267.71 179.5 251.75 163.54 251.75 143.875C251.75 124.21 267.71 108.25 287.375 108.25C307.04 108.25 323 92.29 323 72.625C323 52.96 307.04 37 287.375 37L180.215 37C141.17 37.285 109.25 69.205 109.25 108.25Z" fill="#B1FF05"/>
<path d="M289.467 52.8833C292.586 52.8833 295.635 51.9583 298.229 50.2252C300.823 48.4921 302.844 46.0289 304.038 43.1469C305.232 40.2649 305.544 37.0936 304.936 34.0341C304.327 30.9746 302.825 28.1642 300.619 25.9584C298.413 23.7526 295.603 22.2505 292.544 21.6419C289.484 21.0334 286.313 21.3457 283.431 22.5394C280.549 23.7332 278.086 25.7548 276.352 28.3485C274.619 30.9422 273.694 33.9916 273.694 37.1111C273.693 39.1828 274.099 41.2345 274.891 43.1489C275.683 45.0632 276.845 46.8026 278.31 48.2676C279.775 49.7325 281.514 50.8942 283.429 51.6862C285.343 52.4782 287.395 52.885 289.467 52.8833V52.8833Z" fill="white" stroke="#001E2B" stroke-width="1.2" stroke-miterlimit="10"/>
<path d="M279.904 49.6874C279.904 49.6874 299.817 42.9981 302.676 28.3516C306.027 32.9707 307.464 43.4769 299.972 49.0534C292.481 54.63 285.157 52.715 279.904 49.6874Z" fill="#001E2B"/>
<path d="M52.4885 284.828L62.4289 293.624L72.361 302.32L59.8387 306.567L47.3164 310.772L49.8982 297.838L52.4885 284.828Z" fill="white" stroke="#001E2B" stroke-width="1.2" stroke-miterlimit="10"/>
<path d="M57.2485 298.906L47.3164 310.806L72.361 302.32L57.2485 298.906Z" fill="#001E2B"/>
<path d="M57.2492 298.906L52.4893 284.828" stroke="#001E2B" stroke-width="1.2" stroke-miterlimit="10"/>
<path d="M278.233 83.0396H42.8517C39.5687 83.0396 36.9072 85.686 36.9072 88.9506V250.587C36.9072 253.852 39.5687 256.498 42.8517 256.498H278.233C281.516 256.498 284.178 253.852 284.178 250.587V88.9506C284.178 85.686 281.516 83.0396 278.233 83.0396Z" fill="#001E2B" stroke="#001E2B" stroke-width="1.2" stroke-miterlimit="10"/>
<path d="M75.1113 165.822L75.1113 259.62C75.1113 261.071 75.3973 262.509 75.9529 263.849C76.5085 265.19 77.3228 266.409 78.3494 267.435C79.376 268.461 80.5946 269.275 81.9358 269.83C83.277 270.385 84.7143 270.67 86.1658 270.67H219.422" stroke="#00684A" stroke-width="1.2" stroke-miterlimit="10" stroke-dasharray="2 2"/>
<path d="M73.3682 164.518C73.3682 164.173 73.4705 163.835 73.6621 163.549C73.8538 163.262 74.1262 163.038 74.4449 162.906C74.7636 162.774 75.1143 162.74 75.4527 162.807C75.791 162.874 76.1018 163.04 76.3457 163.284C76.5897 163.528 76.7558 163.839 76.8231 164.177C76.8904 164.516 76.8559 164.866 76.7238 165.185C76.5918 165.504 76.3683 165.776 76.0814 165.968C75.7946 166.16 75.4574 166.262 75.1124 166.262C74.6498 166.262 74.2061 166.078 73.879 165.751C73.5519 165.424 73.3682 164.98 73.3682 164.518V164.518Z" fill="#00684A"/>
<path d="M74.2678 218.52H46.2768C43.9392 218.52 41.6973 217.591 40.0444 215.938C38.3915 214.285 37.4629 212.043 37.4629 209.706V183.904" stroke="#00684A" stroke-width="1.2" stroke-miterlimit="10" stroke-dasharray="2 2"/>
<path d="M39.2111 183.987C39.2111 183.642 39.1088 183.305 38.9172 183.018C38.7255 182.731 38.4531 182.507 38.1344 182.375C37.8157 182.243 37.4649 182.209 37.1266 182.276C36.7882 182.343 36.4775 182.51 36.2335 182.754C35.9896 182.997 35.8235 183.308 35.7562 183.647C35.6889 183.985 35.7234 184.336 35.8554 184.654C35.9874 184.973 36.211 185.246 36.4978 185.437C36.7847 185.629 37.1219 185.731 37.4669 185.731C37.9291 185.73 38.372 185.546 38.6989 185.219C39.0257 184.892 39.2099 184.449 39.2111 183.987V183.987Z" fill="#00684A"/>
<path d="M117.799 270.67V281.803C117.798 282.46 117.927 283.11 118.178 283.717C118.429 284.324 118.798 284.876 119.262 285.34C119.727 285.805 120.278 286.173 120.885 286.424C121.492 286.675 122.143 286.804 122.8 286.804H142.71" stroke="#00684A" stroke-width="1.2" stroke-miterlimit="10" stroke-dasharray="2 2"/>
<path d="M142.625 288.538C143.588 288.538 144.369 287.757 144.369 286.794C144.369 285.831 143.588 285.05 142.625 285.05C141.662 285.05 140.881 285.831 140.881 286.794C140.881 287.757 141.662 288.538 142.625 288.538Z" fill="#00684A"/>
<path d="M219.312 272.492C220.275 272.492 221.056 271.711 221.056 270.748C221.056 269.785 220.275 269.004 219.312 269.004C218.348 269.004 217.567 269.785 217.567 270.748C217.567 271.711 218.348 272.492 219.312 272.492Z" fill="#00684A"/>
<path d="M153.045 164.879V71.0803C153.045 69.6289 153.331 68.1916 153.886 66.8507C154.442 65.5098 155.256 64.2914 156.283 63.2653C157.31 62.2391 158.528 61.4253 159.869 60.8703C161.211 60.3153 162.648 60.0299 164.099 60.0305L260.245 60.0305" stroke="#00684A" stroke-width="1.2" stroke-miterlimit="10" stroke-dasharray="2 2"/>
<path d="M151.302 166.183C151.302 166.528 151.404 166.865 151.596 167.152C151.787 167.438 152.06 167.662 152.379 167.794C152.697 167.926 153.048 167.961 153.386 167.893C153.725 167.826 154.035 167.66 154.279 167.416C154.523 167.172 154.689 166.861 154.757 166.523C154.824 166.184 154.789 165.834 154.657 165.515C154.525 165.196 154.302 164.924 154.015 164.732C153.728 164.541 153.391 164.438 153.046 164.438C152.583 164.438 152.14 164.622 151.813 164.949C151.486 165.276 151.302 165.72 151.302 166.183V166.183Z" fill="#00684A"/>
<path d="M152.201 112.181H124.21C121.873 112.181 119.631 113.109 117.978 114.762C116.325 116.415 115.396 118.657 115.396 120.994V146.796" stroke="#00684A" stroke-width="1.2" stroke-miterlimit="10" stroke-dasharray="2 2"/>
<path d="M117.145 146.713C117.145 147.058 117.042 147.395 116.851 147.682C116.659 147.969 116.387 148.193 116.068 148.325C115.749 148.457 115.399 148.491 115.06 148.424C114.722 148.357 114.411 148.191 114.167 147.947C113.923 147.703 113.757 147.392 113.69 147.054C113.622 146.715 113.657 146.365 113.789 146.046C113.921 145.727 114.145 145.455 114.431 145.263C114.718 145.071 115.055 144.969 115.4 144.969C115.863 144.97 116.306 145.154 116.632 145.481C116.959 145.808 117.143 146.251 117.145 146.713V146.713Z" fill="#00684A"/>
<path d="M195.732 60.0305V48.8972C195.732 48.2403 195.861 47.5898 196.112 46.9828C196.363 46.3758 196.731 45.8243 197.196 45.3598C197.66 44.8953 198.212 44.5269 198.819 44.2759C199.426 44.0248 200.076 43.8958 200.733 43.8965H220.643" stroke="#00684A" stroke-width="1.2" stroke-miterlimit="10" stroke-dasharray="2 2"/>
<path d="M220.559 42.1619C221.522 42.1619 222.303 42.9429 222.303 43.9062C222.303 44.8695 221.522 45.6504 220.559 45.6504C219.595 45.6504 218.814 44.8695 218.814 43.9062C218.814 42.9429 219.595 42.1619 220.559 42.1619Z" fill="#00684A"/>
<path d="M260.134 58.2078C261.097 58.2078 261.878 58.9888 261.878 59.9521C261.878 60.9154 261.097 61.6963 260.134 61.6963C259.171 61.6963 258.39 60.9154 258.39 59.9521C258.39 58.9888 259.171 58.2078 260.134 58.2078Z" fill="#00684A"/>
<path d="M268.262 73.2136H33.6868C30.415 73.2136 27.7627 75.866 27.7627 79.1378V241.134C27.7627 244.406 30.415 247.058 33.6868 247.058H268.262C271.534 247.058 274.187 244.406 274.187 241.134V79.1378C274.187 75.866 271.534 73.2136 268.262 73.2136Z" fill="white" stroke="#001E2B" stroke-width="1.2" stroke-miterlimit="10"/>
<path d="M34.5468 82.0637C35.927 82.0637 37.0458 80.9448 37.0458 79.5647C37.0458 78.1845 35.927 77.0657 34.5468 77.0657C33.1667 77.0657 32.0479 78.1845 32.0479 79.5647C32.0479 80.9448 33.1667 82.0637 34.5468 82.0637Z" fill="#00684A"/>
<path d="M41.5683 82.0637C42.9485 82.0637 44.0673 80.9448 44.0673 79.5647C44.0673 78.1845 42.9485 77.0657 41.5683 77.0657C40.1882 77.0657 39.0693 78.1845 39.0693 79.5647C39.0693 80.9448 40.1882 82.0637 41.5683 82.0637Z" fill="#00684A"/>
<path d="M48.582 82.0637C49.9622 82.0637 51.081 80.9448 51.081 79.5647C51.081 78.1845 49.9622 77.0657 48.582 77.0657C47.2018 77.0657 46.083 78.1845 46.083 79.5647C46.083 80.9448 47.2018 82.0637 48.582 82.0637Z" fill="#00684A"/>
<path d="M27.7627 85.8408H274.33" stroke="#001E2B" stroke-width="1.2" stroke-miterlimit="10"/>
<path d="M259.778 159.577H208.75V173.494H259.778V159.577Z" fill="#E3FCF7"/>
<path d="M314.517 105.766H127.105V118.755H314.517V105.766Z" fill="#E3FCF7"/>
<path d="M293.462 133.6H174.706V145.661H293.462V133.6Z" fill="#E3FCF7"/>
<path d="M161.433 132.672H127.105V145.661H161.433V132.672Z" fill="#00ED64"/>
<path d="M314.516 214.316H48.2441V227.305H314.516V214.316Z" fill="#E3FCF7"/>
<path d="M194.833 159.577H127.105V172.566H194.833V159.577Z" fill="#E3FCF7"/>
<path d="M61.104 206L63.088 199.6H57.296L55.344 206H52.784L54.768 199.6H51.056V197.264H55.504L57.232 191.792H53.392V189.456H57.968L59.888 183.28H62.416L60.496 189.456H66.256L68.208 183.28H70.704L68.784 189.456H72.496V191.792H68.048L66.352 197.264H70.192V199.6H65.584L63.632 206H61.104ZM59.76 191.792L58.064 197.264H63.824L65.52 191.792H59.76ZM91.2645 183.28C96.0005 183.28 99.0725 186.416 99.0725 190.512C99.0725 194.608 96.0005 197.712 91.2645 197.712H87.2965V206H84.3205V183.28H91.2645ZM91.2645 194.96C94.4005 194.96 96.1285 193.04 96.1285 190.512C96.1285 187.984 94.4005 186.064 91.2645 186.064H87.2965V194.96H91.2645ZM103.071 206V183.28H106.047V192.976H118.495V183.28H121.471V206H118.495V195.76H106.047V206H103.071ZM134.421 183.28C139.157 183.28 142.229 186.416 142.229 190.512C142.229 194.608 139.157 197.712 134.421 197.712H130.453V206H127.477V183.28H134.421ZM134.421 194.96C137.557 194.96 139.285 193.04 139.285 190.512C139.285 187.984 137.557 186.064 134.421 186.064H130.453V194.96H134.421Z" fill="#001E2B"/>
<path d="M321 187H159V202H321V187Z" fill="#E3FCF7"/>
<path d="M86 116C65.024 116 48 124.634 48 135.274C48 145.914 65.024 154.547 86 154.547C106.976 154.547 124 145.914 124 135.274C124 124.634 106.976 116 86 116ZM76.0896 138.982C75.1776 139.834 74.2048 140.198 73.0496 140.563C71.9552 140.928 70.5568 140.867 68.7936 140.867H64.9024L63.808 147.069H59.248L63.3216 125.91H72.0768C74.6912 125.91 76.6368 126.64 77.8528 128.038C79.0688 129.437 79.4336 131.382 78.9472 133.875C78.7648 134.909 78.4 135.821 77.9136 136.672C77.488 137.523 76.88 138.314 76.0896 138.982ZM89.344 140.867L91.1072 131.869C91.2896 130.835 91.2288 130.045 90.864 129.68C90.4992 129.315 89.7696 129.072 88.6144 129.072H85.0272L82.7168 140.867H78.2176L82.2912 120.317H86.7904L85.696 125.91H89.7088C92.2624 125.91 93.9648 126.397 94.9376 127.309C95.9104 128.16 96.1536 129.376 95.7888 131.382L93.904 140.867H89.344V140.867ZM114.394 133.875C114.211 134.909 113.846 135.821 113.36 136.672C112.874 137.523 112.266 138.314 111.536 138.982C110.624 139.834 109.651 140.198 108.496 140.563C107.402 140.928 106.003 140.867 104.24 140.867H100.349L99.2544 147.069H94.6944L98.768 125.91H107.523C110.138 125.91 112.083 126.64 113.299 128.038C114.515 129.437 114.88 131.443 114.394 133.875ZM105.821 129.011H102.72L101.018 137.706H103.754C105.578 137.706 106.976 137.523 107.827 136.854C108.739 136.186 109.347 135.091 109.651 133.51C109.955 131.99 109.834 130.774 109.226 130.106C108.739 129.437 107.584 129.011 105.821 129.011ZM70.3744 129.011H67.2736L65.5712 137.706H68.3072C70.1312 137.706 71.5296 137.523 72.3808 136.854C73.2928 136.186 73.9008 135.091 74.2048 133.51C74.5088 131.99 74.3872 130.774 73.7792 130.106C73.2928 129.437 72.1376 129.011 70.3744 129.011Z" fill="#6181B6"/>
</svg>
